<svg width="64" height="64" viewBox="0 0 64 64" fill="none" xmlns="http://www.w3.org/2000/svg">
  <!-- Background circle -->
  <circle cx="32" cy="32" r="30" fill="url(#gradient)" stroke="url(#strokeGradient)" stroke-width="3"/>
  
  <!-- Camera lens -->
  <circle cx="32" cy="24" r="8" fill="none" stroke="white" stroke-width="2.5"/>
  <circle cx="32" cy="24" r="5" fill="none" stroke="white" stroke-width="1.5"/>
  <circle cx="32" cy="24" r="2" fill="white" opacity="0.8"/>
  
  <!-- Camera body -->
  <rect x="24" y="32" width="16" height="12" rx="2" fill="white" opacity="0.9"/>
  
  <!-- People silhouettes (crowd) -->
  <g opacity="0.8">
    <!-- Person 1 -->
    <circle cx="20" cy="40" r="2" fill="white"/>
    <rect x="19" y="42" width="2" height="4" fill="white"/>
    <rect x="18" y="46" width="4" height="1" fill="white"/>
    
    <!-- Person 2 -->
    <circle cx="26" cy="38" r="1.6" fill="white"/>
    <rect x="25.4" y="39.6" width="1.2" height="3" fill="white"/>
    <rect x="25" y="42.6" width="2" height="0.8" fill="white"/>
    
    <!-- Person 3 -->
    <circle cx="38" cy="40" r="1.6" fill="white"/>
    <rect x="37.4" y="41.6" width="1.2" height="3" fill="white"/>
    <rect x="37" y="44.6" width="2" height="0.8" fill="white"/>
    
    <!-- Person 4 -->
    <circle cx="44" cy="38" r="1.4" fill="white"/>
    <rect x="43.6" y="39.4" width="0.8" height="2.6" fill="white"/>
    <rect x="43.2" y="42" width="1.6" height="0.6" fill="white"/>
    
    <!-- Person 5 (smaller, in background) -->
    <circle cx="16" cy="42" r="1.2" fill="white" opacity="0.6"/>
    <rect x="15.6" y="43.2" width="0.8" height="2" fill="white" opacity="0.6"/>
    <rect x="15.4" y="45.2" width="1.2" height="0.5" fill="white" opacity="0.6"/>
  </g>
  
  <!-- Safety shield overlay -->
  <path d="M32 12 L40 16 L40 24 C40 32 32 40 32 40 C32 40 24 32 24 24 L24 16 Z" fill="none" stroke="white" stroke-width="2" opacity="0.6"/>
  
  <!-- Monitoring dots -->
  <circle cx="28" cy="28" r="1" fill="white" opacity="0.7">
    <animate attributeName="opacity" values="0.7;1;0.7" dur="2s" repeatCount="indefinite"/>
  </circle>
  <circle cx="36" cy="28" r="1" fill="white" opacity="0.7">
    <animate attributeName="opacity" values="0.7;1;0.7" dur="2s" repeatCount="indefinite" begin="1s"/>
  </circle>
  
  <!-- Gradients -->
  <defs>
    <linearGradient id="gradient" x1="0%" y1="0%" x2="100%" y2="100%">
      <stop offset="0%" style="stop-color:#1e3a8a;stop-opacity:1" />
      <stop offset="50%" style="stop-color:#3730a3;stop-opacity:1" />
      <stop offset="100%" style="stop-color:#1e1b4b;stop-opacity:1" />
    </linearGradient>
    <linearGradient id="strokeGradient" x1="0%" y1="0%" x2="100%" y2="100%">
      <stop offset="0%" style="stop-color:#60a5fa;stop-opacity:0.8" />
      <stop offset="100%" style="stop-color:#a855f7;stop-opacity:0.8" />
    </linearGradient>
  </defs>
</svg> 