<svg width="32" height="32" viewBox="0 0 32 32" fill="none" xmlns="http://www.w3.org/2000/svg">
  <!-- Background circle -->
  <circle cx="16" cy="16" r="15" fill="url(#gradient)" stroke="url(#strokeGradient)" stroke-width="2"/>
  
  <!-- Camera lens -->
  <circle cx="16" cy="12" r="4" fill="none" stroke="white" stroke-width="1.5"/>
  <circle cx="16" cy="12" r="2.5" fill="none" stroke="white" stroke-width="1"/>
  
  <!-- Camera body -->
  <rect x="12" y="16" width="8" height="6" rx="1" fill="white" opacity="0.9"/>
  
  <!-- People silhouettes (crowd) -->
  <g opacity="0.8">
    <!-- Person 1 -->
    <circle cx="10" cy="20" r="1" fill="white"/>
    <rect x="9.5" y="21" width="1" height="2" fill="white"/>
    <rect x="9" y="23" width="2" height="0.5" fill="white"/>
    
    <!-- Person 2 -->
    <circle cx="13" cy="19" r="0.8" fill="white"/>
    <rect x="12.7" y="19.8" width="0.6" height="1.5" fill="white"/>
    <rect x="12.5" y="21.3" width="1" height="0.4" fill="white"/>
    
    <!-- Person 3 -->
    <circle cx="19" cy="20" r="0.8" fill="white"/>
    <rect x="18.7" y="20.8" width="0.6" height="1.5" fill="white"/>
    <rect x="18.5" y="22.3" width="1" height="0.4" fill="white"/>
    
    <!-- Person 4 -->
    <circle cx="22" cy="19" r="0.7" fill="white"/>
    <rect x="21.8" y="19.7" width="0.4" height="1.3" fill="white"/>
    <rect x="21.6" y="21" width="0.8" height="0.3" fill="white"/>
  </g>
  
  <!-- Safety shield overlay -->
  <path d="M16 6 L20 8 L20 12 C20 16 16 20 16 20 C16 20 12 16 12 12 L12 8 Z" fill="none" stroke="white" stroke-width="1" opacity="0.6"/>
  
  <!-- Gradients -->
  <defs>
    <linearGradient id="gradient" x1="0%" y1="0%" x2="100%" y2="100%">
      <stop offset="0%" style="stop-color:#1e3a8a;stop-opacity:1" />
      <stop offset="50%" style="stop-color:#3730a3;stop-opacity:1" />
      <stop offset="100%" style="stop-color:#1e1b4b;stop-opacity:1" />
    </linearGradient>
    <linearGradient id="strokeGradient" x1="0%" y1="0%" x2="100%" y2="100%">
      <stop offset="0%" style="stop-color:#60a5fa;stop-opacity:0.8" />
      <stop offset="100%" style="stop-color:#a855f7;stop-opacity:0.8" />
    </linearGradient>
  </defs>
</svg> 